<mxfile host="app.diagrams.net" agent="Mozilla/5.0 (Windows NT 10.0; Win64; x64) AppleWebKit/537.36 (KHTML, like Gecko) Chrome/131.0.0.0 Safari/537.36" version="25.0.3">
  <diagram id="C5RBs43oDa-KdzZeNtuy" name="Page-1">
    <mxGraphModel dx="1985" dy="1115" grid="1" gridSize="10" guides="1" tooltips="1" connect="1" arrows="1" fold="1" page="0" pageScale="1" pageWidth="827" pageHeight="1169" math="0" shadow="0">
      <root>
        <mxCell id="WIyWlLk6GJQsqaUBKTNV-0" />
        <mxCell id="WIyWlLk6GJQsqaUBKTNV-1" parent="WIyWlLk6GJQsqaUBKTNV-0" />
        <mxCell id="nefaVMMvmqEAFt040vEw-27" style="edgeStyle=orthogonalEdgeStyle;rounded=0;orthogonalLoop=1;jettySize=auto;html=1;entryX=0.5;entryY=0;entryDx=0;entryDy=0;" edge="1" parent="WIyWlLk6GJQsqaUBKTNV-1" source="nefaVMMvmqEAFt040vEw-0" target="nefaVMMvmqEAFt040vEw-25">
          <mxGeometry relative="1" as="geometry" />
        </mxCell>
        <mxCell id="nefaVMMvmqEAFt040vEw-39" style="edgeStyle=orthogonalEdgeStyle;rounded=0;orthogonalLoop=1;jettySize=auto;html=1;entryX=0.5;entryY=0;entryDx=0;entryDy=0;" edge="1" parent="WIyWlLk6GJQsqaUBKTNV-1" source="nefaVMMvmqEAFt040vEw-0" target="nefaVMMvmqEAFt040vEw-9">
          <mxGeometry relative="1" as="geometry">
            <Array as="points">
              <mxPoint x="300" y="280" />
              <mxPoint x="860" y="280" />
            </Array>
          </mxGeometry>
        </mxCell>
        <mxCell id="nefaVMMvmqEAFt040vEw-0" value="Start" style="strokeWidth=2;html=1;shape=mxgraph.flowchart.start_1;whiteSpace=wrap;fillColor=#dae8fc;strokeColor=#6c8ebf;" vertex="1" parent="WIyWlLk6GJQsqaUBKTNV-1">
          <mxGeometry x="250" y="170" width="100" height="60" as="geometry" />
        </mxCell>
        <mxCell id="nefaVMMvmqEAFt040vEw-29" value="" style="edgeStyle=orthogonalEdgeStyle;rounded=0;orthogonalLoop=1;jettySize=auto;html=1;" edge="1" parent="WIyWlLk6GJQsqaUBKTNV-1" source="nefaVMMvmqEAFt040vEw-4" target="nefaVMMvmqEAFt040vEw-5">
          <mxGeometry relative="1" as="geometry" />
        </mxCell>
        <mxCell id="nefaVMMvmqEAFt040vEw-4" value="Select focus areas" style="shape=parallelogram;html=1;strokeWidth=2;perimeter=parallelogramPerimeter;whiteSpace=wrap;rounded=1;arcSize=12;size=0.23;fillColor=#d5e8d4;strokeColor=#82b366;" vertex="1" parent="WIyWlLk6GJQsqaUBKTNV-1">
          <mxGeometry x="230" y="490" width="140" height="60" as="geometry" />
        </mxCell>
        <mxCell id="nefaVMMvmqEAFt040vEw-30" value="" style="edgeStyle=orthogonalEdgeStyle;rounded=0;orthogonalLoop=1;jettySize=auto;html=1;" edge="1" parent="WIyWlLk6GJQsqaUBKTNV-1" source="nefaVMMvmqEAFt040vEw-5" target="nefaVMMvmqEAFt040vEw-6">
          <mxGeometry relative="1" as="geometry" />
        </mxCell>
        <mxCell id="nefaVMMvmqEAFt040vEw-5" value="Set activity duration" style="shape=parallelogram;html=1;strokeWidth=2;perimeter=parallelogramPerimeter;whiteSpace=wrap;rounded=1;arcSize=12;size=0.23;fillColor=#d5e8d4;strokeColor=#82b366;" vertex="1" parent="WIyWlLk6GJQsqaUBKTNV-1">
          <mxGeometry x="230" y="650" width="140" height="60" as="geometry" />
        </mxCell>
        <mxCell id="nefaVMMvmqEAFt040vEw-31" value="" style="edgeStyle=orthogonalEdgeStyle;rounded=0;orthogonalLoop=1;jettySize=auto;html=1;" edge="1" parent="WIyWlLk6GJQsqaUBKTNV-1" source="nefaVMMvmqEAFt040vEw-6" target="nefaVMMvmqEAFt040vEw-7">
          <mxGeometry relative="1" as="geometry" />
        </mxCell>
        <mxCell id="nefaVMMvmqEAFt040vEw-6" value="Enable / Disable&lt;div&gt;&amp;nbsp;warm-up section&lt;/div&gt;" style="shape=parallelogram;html=1;strokeWidth=2;perimeter=parallelogramPerimeter;whiteSpace=wrap;rounded=1;arcSize=12;size=0.23;fillColor=#d5e8d4;strokeColor=#82b366;" vertex="1" parent="WIyWlLk6GJQsqaUBKTNV-1">
          <mxGeometry x="230" y="810" width="140" height="60" as="geometry" />
        </mxCell>
        <mxCell id="nefaVMMvmqEAFt040vEw-32" value="" style="edgeStyle=orthogonalEdgeStyle;rounded=0;orthogonalLoop=1;jettySize=auto;html=1;" edge="1" parent="WIyWlLk6GJQsqaUBKTNV-1" source="nefaVMMvmqEAFt040vEw-7" target="nefaVMMvmqEAFt040vEw-8">
          <mxGeometry relative="1" as="geometry" />
        </mxCell>
        <mxCell id="nefaVMMvmqEAFt040vEw-7" value="Enable / Disable&lt;div&gt;&amp;nbsp;stretching section&lt;/div&gt;" style="shape=parallelogram;html=1;strokeWidth=2;perimeter=parallelogramPerimeter;whiteSpace=wrap;rounded=1;arcSize=12;size=0.23;fillColor=#d5e8d4;strokeColor=#82b366;" vertex="1" parent="WIyWlLk6GJQsqaUBKTNV-1">
          <mxGeometry x="230" y="970" width="140" height="60" as="geometry" />
        </mxCell>
        <mxCell id="nefaVMMvmqEAFt040vEw-34" style="edgeStyle=orthogonalEdgeStyle;rounded=0;orthogonalLoop=1;jettySize=auto;html=1;entryX=0.5;entryY=0;entryDx=0;entryDy=0;" edge="1" parent="WIyWlLk6GJQsqaUBKTNV-1" source="nefaVMMvmqEAFt040vEw-8" target="nefaVMMvmqEAFt040vEw-15">
          <mxGeometry relative="1" as="geometry">
            <Array as="points">
              <mxPoint x="440" y="1160" />
              <mxPoint x="440" y="440" />
              <mxPoint x="580" y="440" />
            </Array>
          </mxGeometry>
        </mxCell>
        <mxCell id="nefaVMMvmqEAFt040vEw-8" value="Create activity automatically" style="rounded=1;whiteSpace=wrap;html=1;absoluteArcSize=1;arcSize=14;strokeWidth=2;fillColor=#f8cecc;strokeColor=#b85450;" vertex="1" parent="WIyWlLk6GJQsqaUBKTNV-1">
          <mxGeometry x="240" y="1130" width="120" height="60" as="geometry" />
        </mxCell>
        <mxCell id="nefaVMMvmqEAFt040vEw-40" style="edgeStyle=orthogonalEdgeStyle;rounded=0;orthogonalLoop=1;jettySize=auto;html=1;entryX=0.5;entryY=0;entryDx=0;entryDy=0;" edge="1" parent="WIyWlLk6GJQsqaUBKTNV-1" source="nefaVMMvmqEAFt040vEw-9" target="nefaVMMvmqEAFt040vEw-17">
          <mxGeometry relative="1" as="geometry" />
        </mxCell>
        <mxCell id="nefaVMMvmqEAFt040vEw-9" value="Create activity mansually" style="rounded=1;whiteSpace=wrap;html=1;absoluteArcSize=1;arcSize=14;strokeWidth=2;fillColor=#f8cecc;strokeColor=#b85450;" vertex="1" parent="WIyWlLk6GJQsqaUBKTNV-1">
          <mxGeometry x="800" y="330" width="120" height="60" as="geometry" />
        </mxCell>
        <mxCell id="nefaVMMvmqEAFt040vEw-36" style="edgeStyle=orthogonalEdgeStyle;rounded=0;orthogonalLoop=1;jettySize=auto;html=1;entryX=0.5;entryY=0;entryDx=0;entryDy=0;" edge="1" parent="WIyWlLk6GJQsqaUBKTNV-1" source="nefaVMMvmqEAFt040vEw-10" target="nefaVMMvmqEAFt040vEw-12">
          <mxGeometry relative="1" as="geometry" />
        </mxCell>
        <mxCell id="nefaVMMvmqEAFt040vEw-10" value="Enable warm-up section?" style="strokeWidth=2;html=1;shape=mxgraph.flowchart.decision;whiteSpace=wrap;fillColor=#e1d5e7;strokeColor=#9673a6;" vertex="1" parent="WIyWlLk6GJQsqaUBKTNV-1">
          <mxGeometry x="520" y="640" width="120" height="80" as="geometry" />
        </mxCell>
        <mxCell id="nefaVMMvmqEAFt040vEw-38" style="edgeStyle=orthogonalEdgeStyle;rounded=0;orthogonalLoop=1;jettySize=auto;html=1;entryX=0.5;entryY=0;entryDx=0;entryDy=0;" edge="1" parent="WIyWlLk6GJQsqaUBKTNV-1" source="nefaVMMvmqEAFt040vEw-11" target="nefaVMMvmqEAFt040vEw-13">
          <mxGeometry relative="1" as="geometry" />
        </mxCell>
        <mxCell id="nefaVMMvmqEAFt040vEw-68" style="edgeStyle=orthogonalEdgeStyle;rounded=0;orthogonalLoop=1;jettySize=auto;html=1;entryX=0.5;entryY=0;entryDx=0;entryDy=0;" edge="1" parent="WIyWlLk6GJQsqaUBKTNV-1" source="nefaVMMvmqEAFt040vEw-11" target="nefaVMMvmqEAFt040vEw-51">
          <mxGeometry relative="1" as="geometry">
            <Array as="points">
              <mxPoint x="680" y="1000" />
              <mxPoint x="680" y="1240" />
              <mxPoint x="580" y="1240" />
            </Array>
          </mxGeometry>
        </mxCell>
        <mxCell id="nefaVMMvmqEAFt040vEw-11" value="Enable stretching section?" style="strokeWidth=2;html=1;shape=mxgraph.flowchart.decision;whiteSpace=wrap;fillColor=#e1d5e7;strokeColor=#9673a6;" vertex="1" parent="WIyWlLk6GJQsqaUBKTNV-1">
          <mxGeometry x="520" y="960" width="120" height="80" as="geometry" />
        </mxCell>
        <mxCell id="nefaVMMvmqEAFt040vEw-12" value="System adds warm-up exercises to the activity" style="rounded=1;whiteSpace=wrap;html=1;absoluteArcSize=1;arcSize=14;strokeWidth=2;fillColor=#f8cecc;strokeColor=#b85450;" vertex="1" parent="WIyWlLk6GJQsqaUBKTNV-1">
          <mxGeometry x="520" y="810" width="120" height="60" as="geometry" />
        </mxCell>
        <mxCell id="nefaVMMvmqEAFt040vEw-52" style="edgeStyle=orthogonalEdgeStyle;rounded=0;orthogonalLoop=1;jettySize=auto;html=1;entryX=0.5;entryY=0;entryDx=0;entryDy=0;" edge="1" parent="WIyWlLk6GJQsqaUBKTNV-1" source="nefaVMMvmqEAFt040vEw-13" target="nefaVMMvmqEAFt040vEw-51">
          <mxGeometry relative="1" as="geometry" />
        </mxCell>
        <mxCell id="nefaVMMvmqEAFt040vEw-13" value="System adds stretching exercises to the activity" style="rounded=1;whiteSpace=wrap;html=1;absoluteArcSize=1;arcSize=14;strokeWidth=2;fillColor=#f8cecc;strokeColor=#b85450;" vertex="1" parent="WIyWlLk6GJQsqaUBKTNV-1">
          <mxGeometry x="520" y="1130" width="120" height="60" as="geometry" />
        </mxCell>
        <mxCell id="nefaVMMvmqEAFt040vEw-15" value="System defines activity name" style="rounded=1;whiteSpace=wrap;html=1;absoluteArcSize=1;arcSize=14;strokeWidth=2;fillColor=#f8cecc;strokeColor=#b85450;" vertex="1" parent="WIyWlLk6GJQsqaUBKTNV-1">
          <mxGeometry x="520" y="490" width="120" height="60" as="geometry" />
        </mxCell>
        <mxCell id="nefaVMMvmqEAFt040vEw-47" style="edgeStyle=orthogonalEdgeStyle;rounded=0;orthogonalLoop=1;jettySize=auto;html=1;entryX=0.5;entryY=0;entryDx=0;entryDy=0;" edge="1" parent="WIyWlLk6GJQsqaUBKTNV-1" source="nefaVMMvmqEAFt040vEw-17" target="nefaVMMvmqEAFt040vEw-46">
          <mxGeometry relative="1" as="geometry" />
        </mxCell>
        <mxCell id="nefaVMMvmqEAFt040vEw-17" value="Edit activity" style="rounded=1;whiteSpace=wrap;html=1;absoluteArcSize=1;arcSize=14;strokeWidth=2;fillColor=#f8cecc;strokeColor=#b85450;" vertex="1" parent="WIyWlLk6GJQsqaUBKTNV-1">
          <mxGeometry x="800" y="490" width="120" height="60" as="geometry" />
        </mxCell>
        <mxCell id="nefaVMMvmqEAFt040vEw-20" value="Save &amp;amp; start activity" style="rounded=1;whiteSpace=wrap;html=1;absoluteArcSize=1;arcSize=14;strokeWidth=2;fillColor=#f8cecc;strokeColor=#b85450;" vertex="1" parent="WIyWlLk6GJQsqaUBKTNV-1">
          <mxGeometry x="800" y="1470" width="120" height="60" as="geometry" />
        </mxCell>
        <mxCell id="nefaVMMvmqEAFt040vEw-28" style="edgeStyle=orthogonalEdgeStyle;rounded=0;orthogonalLoop=1;jettySize=auto;html=1;entryX=0.5;entryY=0;entryDx=0;entryDy=0;" edge="1" parent="WIyWlLk6GJQsqaUBKTNV-1" source="nefaVMMvmqEAFt040vEw-25" target="nefaVMMvmqEAFt040vEw-4">
          <mxGeometry relative="1" as="geometry" />
        </mxCell>
        <mxCell id="nefaVMMvmqEAFt040vEw-25" value="Customize activity template" style="rounded=1;whiteSpace=wrap;html=1;absoluteArcSize=1;arcSize=14;strokeWidth=2;fillColor=#f8cecc;strokeColor=#b85450;" vertex="1" parent="WIyWlLk6GJQsqaUBKTNV-1">
          <mxGeometry x="240" y="330" width="120" height="60" as="geometry" />
        </mxCell>
        <mxCell id="nefaVMMvmqEAFt040vEw-26" value="End" style="strokeWidth=2;html=1;shape=mxgraph.flowchart.start_1;whiteSpace=wrap;fillColor=#dae8fc;strokeColor=#6c8ebf;" vertex="1" parent="WIyWlLk6GJQsqaUBKTNV-1">
          <mxGeometry x="810" y="1650" width="100" height="60" as="geometry" />
        </mxCell>
        <mxCell id="nefaVMMvmqEAFt040vEw-35" style="edgeStyle=orthogonalEdgeStyle;rounded=0;orthogonalLoop=1;jettySize=auto;html=1;entryX=0.5;entryY=0;entryDx=0;entryDy=0;entryPerimeter=0;" edge="1" parent="WIyWlLk6GJQsqaUBKTNV-1" source="nefaVMMvmqEAFt040vEw-15" target="nefaVMMvmqEAFt040vEw-10">
          <mxGeometry relative="1" as="geometry" />
        </mxCell>
        <mxCell id="nefaVMMvmqEAFt040vEw-37" style="edgeStyle=orthogonalEdgeStyle;rounded=0;orthogonalLoop=1;jettySize=auto;html=1;entryX=0.5;entryY=0;entryDx=0;entryDy=0;entryPerimeter=0;" edge="1" parent="WIyWlLk6GJQsqaUBKTNV-1" source="nefaVMMvmqEAFt040vEw-12" target="nefaVMMvmqEAFt040vEw-11">
          <mxGeometry relative="1" as="geometry" />
        </mxCell>
        <mxCell id="nefaVMMvmqEAFt040vEw-43" style="edgeStyle=orthogonalEdgeStyle;rounded=0;orthogonalLoop=1;jettySize=auto;html=1;entryX=0.5;entryY=0;entryDx=0;entryDy=0;entryPerimeter=0;" edge="1" parent="WIyWlLk6GJQsqaUBKTNV-1" source="nefaVMMvmqEAFt040vEw-20" target="nefaVMMvmqEAFt040vEw-26">
          <mxGeometry relative="1" as="geometry" />
        </mxCell>
        <mxCell id="nefaVMMvmqEAFt040vEw-46" value="Add / Replace /&amp;nbsp;&lt;div&gt;Delete exercises&lt;/div&gt;" style="shape=parallelogram;html=1;strokeWidth=2;perimeter=parallelogramPerimeter;whiteSpace=wrap;rounded=1;arcSize=12;size=0.23;fillColor=#d5e8d4;strokeColor=#82b366;" vertex="1" parent="WIyWlLk6GJQsqaUBKTNV-1">
          <mxGeometry x="790" y="650" width="140" height="60" as="geometry" />
        </mxCell>
        <mxCell id="nefaVMMvmqEAFt040vEw-64" style="edgeStyle=orthogonalEdgeStyle;rounded=0;orthogonalLoop=1;jettySize=auto;html=1;entryX=0.5;entryY=0;entryDx=0;entryDy=0;" edge="1" parent="WIyWlLk6GJQsqaUBKTNV-1" source="nefaVMMvmqEAFt040vEw-50" target="nefaVMMvmqEAFt040vEw-17">
          <mxGeometry relative="1" as="geometry">
            <Array as="points">
              <mxPoint x="720" y="1500" />
              <mxPoint x="720" y="440" />
              <mxPoint x="860" y="440" />
            </Array>
          </mxGeometry>
        </mxCell>
        <mxCell id="nefaVMMvmqEAFt040vEw-65" style="edgeStyle=orthogonalEdgeStyle;rounded=0;orthogonalLoop=1;jettySize=auto;html=1;entryX=0.5;entryY=0;entryDx=0;entryDy=0;" edge="1" parent="WIyWlLk6GJQsqaUBKTNV-1" source="nefaVMMvmqEAFt040vEw-50" target="nefaVMMvmqEAFt040vEw-54">
          <mxGeometry relative="1" as="geometry" />
        </mxCell>
        <mxCell id="nefaVMMvmqEAFt040vEw-50" value="Does these added exercises&amp;nbsp;&lt;div&gt;contain necessary equipments&amp;nbsp;&lt;div&gt;which not in the activity?&lt;/div&gt;&lt;/div&gt;" style="strokeWidth=2;html=1;shape=mxgraph.flowchart.decision;whiteSpace=wrap;fillColor=#e1d5e7;strokeColor=#9673a6;" vertex="1" parent="WIyWlLk6GJQsqaUBKTNV-1">
          <mxGeometry x="480" y="1440" width="200" height="120" as="geometry" />
        </mxCell>
        <mxCell id="nefaVMMvmqEAFt040vEw-51" value="List added exercises" style="shape=parallelogram;html=1;strokeWidth=2;perimeter=parallelogramPerimeter;whiteSpace=wrap;rounded=1;arcSize=12;size=0.23;fillColor=#d5e8d4;strokeColor=#82b366;" vertex="1" parent="WIyWlLk6GJQsqaUBKTNV-1">
          <mxGeometry x="505" y="1290" width="150" height="60" as="geometry" />
        </mxCell>
        <mxCell id="nefaVMMvmqEAFt040vEw-53" style="edgeStyle=orthogonalEdgeStyle;rounded=0;orthogonalLoop=1;jettySize=auto;html=1;entryX=0.5;entryY=0;entryDx=0;entryDy=0;entryPerimeter=0;" edge="1" parent="WIyWlLk6GJQsqaUBKTNV-1" source="nefaVMMvmqEAFt040vEw-51" target="nefaVMMvmqEAFt040vEw-50">
          <mxGeometry relative="1" as="geometry" />
        </mxCell>
        <mxCell id="nefaVMMvmqEAFt040vEw-66" style="edgeStyle=orthogonalEdgeStyle;rounded=0;orthogonalLoop=1;jettySize=auto;html=1;entryX=0.5;entryY=0;entryDx=0;entryDy=0;" edge="1" parent="WIyWlLk6GJQsqaUBKTNV-1" source="nefaVMMvmqEAFt040vEw-54" target="nefaVMMvmqEAFt040vEw-17">
          <mxGeometry relative="1" as="geometry">
            <Array as="points">
              <mxPoint x="720" y="1680" />
              <mxPoint x="720" y="440" />
              <mxPoint x="860" y="440" />
            </Array>
          </mxGeometry>
        </mxCell>
        <mxCell id="nefaVMMvmqEAFt040vEw-54" value="Add equipment" style="rounded=1;whiteSpace=wrap;html=1;absoluteArcSize=1;arcSize=14;strokeWidth=2;fillColor=#f8cecc;strokeColor=#b85450;" vertex="1" parent="WIyWlLk6GJQsqaUBKTNV-1">
          <mxGeometry x="520" y="1650" width="120" height="60" as="geometry" />
        </mxCell>
        <mxCell id="nefaVMMvmqEAFt040vEw-60" style="edgeStyle=orthogonalEdgeStyle;rounded=0;orthogonalLoop=1;jettySize=auto;html=1;entryX=0.5;entryY=0;entryDx=0;entryDy=0;" edge="1" parent="WIyWlLk6GJQsqaUBKTNV-1" source="nefaVMMvmqEAFt040vEw-56" target="nefaVMMvmqEAFt040vEw-58">
          <mxGeometry relative="1" as="geometry" />
        </mxCell>
        <mxCell id="nefaVMMvmqEAFt040vEw-61" style="edgeStyle=orthogonalEdgeStyle;rounded=0;orthogonalLoop=1;jettySize=auto;html=1;entryX=0.5;entryY=0;entryDx=0;entryDy=0;" edge="1" parent="WIyWlLk6GJQsqaUBKTNV-1" source="nefaVMMvmqEAFt040vEw-56" target="nefaVMMvmqEAFt040vEw-59">
          <mxGeometry relative="1" as="geometry" />
        </mxCell>
        <mxCell id="nefaVMMvmqEAFt040vEw-56" value="Does the added exercise&amp;nbsp;&lt;div&gt;contains necessary equipment&amp;nbsp;&lt;div&gt;which not in the activity?&lt;/div&gt;&lt;/div&gt;" style="strokeWidth=2;html=1;shape=mxgraph.flowchart.decision;whiteSpace=wrap;fillColor=#e1d5e7;strokeColor=#9673a6;" vertex="1" parent="WIyWlLk6GJQsqaUBKTNV-1">
          <mxGeometry x="760" y="800" width="200" height="120" as="geometry" />
        </mxCell>
        <mxCell id="nefaVMMvmqEAFt040vEw-57" style="edgeStyle=orthogonalEdgeStyle;rounded=0;orthogonalLoop=1;jettySize=auto;html=1;entryX=0.5;entryY=0;entryDx=0;entryDy=0;entryPerimeter=0;" edge="1" parent="WIyWlLk6GJQsqaUBKTNV-1" source="nefaVMMvmqEAFt040vEw-46" target="nefaVMMvmqEAFt040vEw-56">
          <mxGeometry relative="1" as="geometry" />
        </mxCell>
        <mxCell id="nefaVMMvmqEAFt040vEw-63" style="edgeStyle=orthogonalEdgeStyle;rounded=0;orthogonalLoop=1;jettySize=auto;html=1;entryX=0.5;entryY=0;entryDx=0;entryDy=0;" edge="1" parent="WIyWlLk6GJQsqaUBKTNV-1" source="nefaVMMvmqEAFt040vEw-58" target="nefaVMMvmqEAFt040vEw-59">
          <mxGeometry relative="1" as="geometry">
            <Array as="points">
              <mxPoint x="1060" y="1040" />
              <mxPoint x="860" y="1040" />
            </Array>
          </mxGeometry>
        </mxCell>
        <mxCell id="nefaVMMvmqEAFt040vEw-58" value="Add equipment" style="rounded=1;whiteSpace=wrap;html=1;absoluteArcSize=1;arcSize=14;strokeWidth=2;fillColor=#f8cecc;strokeColor=#b85450;" vertex="1" parent="WIyWlLk6GJQsqaUBKTNV-1">
          <mxGeometry x="1000" y="930" width="120" height="60" as="geometry" />
        </mxCell>
        <mxCell id="nefaVMMvmqEAFt040vEw-74" value="" style="edgeStyle=orthogonalEdgeStyle;rounded=0;orthogonalLoop=1;jettySize=auto;html=1;" edge="1" parent="WIyWlLk6GJQsqaUBKTNV-1" source="nefaVMMvmqEAFt040vEw-59" target="nefaVMMvmqEAFt040vEw-73">
          <mxGeometry relative="1" as="geometry" />
        </mxCell>
        <mxCell id="nefaVMMvmqEAFt040vEw-59" value="Reset timer" style="shape=parallelogram;html=1;strokeWidth=2;perimeter=parallelogramPerimeter;whiteSpace=wrap;rounded=1;arcSize=12;size=0.23;fillColor=#d5e8d4;strokeColor=#82b366;" vertex="1" parent="WIyWlLk6GJQsqaUBKTNV-1">
          <mxGeometry x="790" y="1130" width="140" height="60" as="geometry" />
        </mxCell>
        <mxCell id="nefaVMMvmqEAFt040vEw-67" style="edgeStyle=orthogonalEdgeStyle;rounded=0;orthogonalLoop=1;jettySize=auto;html=1;entryX=0.5;entryY=0;entryDx=0;entryDy=0;entryPerimeter=0;" edge="1" parent="WIyWlLk6GJQsqaUBKTNV-1" source="nefaVMMvmqEAFt040vEw-10" target="nefaVMMvmqEAFt040vEw-11">
          <mxGeometry relative="1" as="geometry">
            <Array as="points">
              <mxPoint x="680" y="680" />
              <mxPoint x="680" y="920" />
              <mxPoint x="580" y="920" />
            </Array>
          </mxGeometry>
        </mxCell>
        <mxCell id="nefaVMMvmqEAFt040vEw-69" value="Yes" style="text;html=1;align=center;verticalAlign=middle;resizable=0;points=[];autosize=1;strokeColor=none;fillColor=none;" vertex="1" parent="WIyWlLk6GJQsqaUBKTNV-1">
          <mxGeometry x="540" y="720" width="40" height="30" as="geometry" />
        </mxCell>
        <mxCell id="nefaVMMvmqEAFt040vEw-70" value="Yes" style="text;html=1;align=center;verticalAlign=middle;resizable=0;points=[];autosize=1;strokeColor=none;fillColor=none;" vertex="1" parent="WIyWlLk6GJQsqaUBKTNV-1">
          <mxGeometry x="540" y="1040" width="40" height="30" as="geometry" />
        </mxCell>
        <mxCell id="nefaVMMvmqEAFt040vEw-71" value="Yes" style="text;html=1;align=center;verticalAlign=middle;resizable=0;points=[];autosize=1;strokeColor=none;fillColor=none;" vertex="1" parent="WIyWlLk6GJQsqaUBKTNV-1">
          <mxGeometry x="540" y="1560" width="40" height="30" as="geometry" />
        </mxCell>
        <mxCell id="nefaVMMvmqEAFt040vEw-72" value="Yes" style="text;html=1;align=center;verticalAlign=middle;resizable=0;points=[];autosize=1;strokeColor=none;fillColor=none;" vertex="1" parent="WIyWlLk6GJQsqaUBKTNV-1">
          <mxGeometry x="960" y="860" width="40" height="30" as="geometry" />
        </mxCell>
        <mxCell id="nefaVMMvmqEAFt040vEw-75" style="edgeStyle=orthogonalEdgeStyle;rounded=0;orthogonalLoop=1;jettySize=auto;html=1;entryX=0.5;entryY=0;entryDx=0;entryDy=0;" edge="1" parent="WIyWlLk6GJQsqaUBKTNV-1" source="nefaVMMvmqEAFt040vEw-73" target="nefaVMMvmqEAFt040vEw-20">
          <mxGeometry relative="1" as="geometry" />
        </mxCell>
        <mxCell id="nefaVMMvmqEAFt040vEw-76" style="edgeStyle=orthogonalEdgeStyle;rounded=0;orthogonalLoop=1;jettySize=auto;html=1;entryX=0.5;entryY=0;entryDx=0;entryDy=0;" edge="1" parent="WIyWlLk6GJQsqaUBKTNV-1" source="nefaVMMvmqEAFt040vEw-73" target="nefaVMMvmqEAFt040vEw-17">
          <mxGeometry relative="1" as="geometry">
            <Array as="points">
              <mxPoint x="720" y="1320" />
              <mxPoint x="720" y="440" />
              <mxPoint x="860" y="440" />
            </Array>
          </mxGeometry>
        </mxCell>
        <mxCell id="nefaVMMvmqEAFt040vEw-73" value="Does the activity&lt;div&gt;&amp;nbsp;contains exercises?&lt;/div&gt;" style="strokeWidth=2;html=1;shape=mxgraph.flowchart.decision;whiteSpace=wrap;fillColor=#e1d5e7;strokeColor=#9673a6;" vertex="1" parent="WIyWlLk6GJQsqaUBKTNV-1">
          <mxGeometry x="780" y="1280" width="160" height="80" as="geometry" />
        </mxCell>
        <mxCell id="nefaVMMvmqEAFt040vEw-77" value="Yes" style="text;html=1;align=center;verticalAlign=middle;resizable=0;points=[];autosize=1;strokeColor=none;fillColor=none;" vertex="1" parent="WIyWlLk6GJQsqaUBKTNV-1">
          <mxGeometry x="860" y="1360" width="40" height="30" as="geometry" />
        </mxCell>
      </root>
    </mxGraphModel>
  </diagram>
</mxfile>
